<?xml version="1.0" standalone="no"?>
<!DOCTYPE svg PUBLIC "-//W3C//DTD SVG 1.1//EN" "http://www.w3.org/Graphics/SVG/1.1/DTD/svg11.dtd">
<svg t="1766455637817" class="icon" viewBox="0 0 1024 1024" version="1.1" xmlns="http://www.w3.org/2000/svg" p-id="49764" xmlns:xlink="http://www.w3.org/1999/xlink" width="256" height="256">
    <!-- 原始路径 -->
    <path d="M986 809a30 30 0 0 1-30 30H786.41a134.3 134.3 0 0 0-0.68-60H956a30 30 0 0 1 30 30z m-461.7-30H64a30 30 0 0 0 0 60h459.54a134.45 134.45 0 0 1 0.76-60z m167.91 96.06a74.51 74.51 0 0 1-101.79-27.28 73.72 73.72 0 0 1-4.33-8.78h-62.55a134.8 134.8 0 0 0 131.64 106.08 134.5 134.5 0 0 0 131.2-106h-62.59a74.2 74.2 0 0 1-31.58 36zM654.84 736a74.83 74.83 0 0 1 64.62 37.29c1.09 1.87 2.06 3.78 3 5.71h63.31a134.45 134.45 0 0 0-261.43 0h63.13a74.53 74.53 0 0 1 67.37-43z m130.89 43h-63.31a74.36 74.36 0 0 1 1.37 60h62.62a134.3 134.3 0 0 0-0.68-60z m-205.29 31.64a74.09 74.09 0 0 1 7-31.64H524.3a134.45 134.45 0 0 0-0.76 60h62.55a74 74 0 0 1-5.65-28.36zM956 168.92H785.73a134.3 134.3 0 0 1 0.68 60H956a30 30 0 0 0 0-60z m-431.7 0H64a30 30 0 1 0 0 60h459.54a134.45 134.45 0 0 1 0.76-60zM692.21 265a74.51 74.51 0 0 1-101.79-27.28 73.72 73.72 0 0 1-4.33-8.78h-62.55A134.81 134.81 0 0 0 655.18 335a134.5 134.5 0 0 0 131.2-106h-62.59a74.16 74.16 0 0 1-31.58 36z m-37.37-139.08a74.83 74.83 0 0 1 64.62 37.29c1.09 1.87 2.06 3.78 3 5.71h63.31a134.45 134.45 0 0 0-261.43 0h63.13a74.53 74.53 0 0 1 67.37-43z m130.89 43h-63.31a74.36 74.36 0 0 1 1.37 60h62.62a134.3 134.3 0 0 0-0.68-60z m-205.29 31.64a74.09 74.09 0 0 1 7-31.64H524.3a134.45 134.45 0 0 0-0.76 60h62.55a74 74 0 0 1-5.65-28.36zM160.9 468H64a30 30 0 0 0 0 60h93.38a135 135 0 0 1 3.52-60z m795.1 0H419.13a134.08 134.08 0 0 1 3.44 60H956a30 30 0 0 0 0-60z m-666.16-37a74.84 74.84 0 0 1 64.45 37h64.84a134.43 134.43 0 0 0-258.23 0h64.68a74.46 74.46 0 0 1 64.26-37z m37.37 139.06A74.53 74.53 0 0 1 218.89 528h-61.51a134.78 134.78 0 0 0 132.8 112.08A134.51 134.51 0 0 0 422.57 528H361a74.22 74.22 0 0 1-33.79 42.06z m-111.77-64.42A74.09 74.09 0 0 1 225.58 468H160.9a135 135 0 0 0-3.52 60h61.51a74.35 74.35 0 0 1-3.45-22.36zM419.13 468h-64.84c0 0.1 0.12 0.19 0.17 0.29A74.25 74.25 0 0 1 361 528h61.59a134.09 134.09 0 0 0-3.46-60z" fill="#297AFF" p-id="49765"></path>
    
    <!-- 复制并加粗的路径 -->
    <path 
        d="M986 809a30 30 0 0 1-30 30H786.41a134.3 134.3 0 0 0-0.68-60H956a30 30 0 0 1 30 30z m-461.7-30H64a30 30 0 0 0 0 60h459.54a134.45 134.45 0 0 1 0.76-60z m167.91 96.06a74.51 74.51 0 0 1-101.79-27.28 73.72 73.72 0 0 1-4.33-8.78h-62.55a134.8 134.8 0 0 0 131.64 106.08 134.5 134.5 0 0 0 131.2-106h-62.59a74.2 74.2 0 0 1-31.58 36zM654.84 736a74.83 74.83 0 0 1 64.62 37.29c1.09 1.87 2.06 3.78 3 5.71h63.31a134.45 134.45 0 0 0-261.43 0h63.13a74.53 74.53 0 0 1 67.37-43z m130.89 43h-63.31a74.36 74.36 0 0 1 1.37 60h62.62a134.3 134.3 0 0 0-0.68-60z m-205.29 31.64a74.09 74.09 0 0 1 7-31.64H524.3a134.45 134.45 0 0 0-0.76 60h62.55a74 74 0 0 1-5.65-28.36zM956 168.92H785.73a134.3 134.3 0 0 1 0.68 60H956a30 30 0 0 0 0-60z m-431.7 0H64a30 30 0 1 0 0 60h459.54a134.45 134.45 0 0 1 0.76-60zM692.21 265a74.51 74.51 0 0 1-101.79-27.28 73.72 73.72 0 0 1-4.33-8.78h-62.55A134.81 134.81 0 0 0 655.18 335a134.5 134.5 0 0 0 131.2-106h-62.59a74.16 74.16 0 0 1-31.58 36z m-37.37-139.08a74.83 74.83 0 0 1 64.62 37.29c1.09 1.87 2.06 3.78 3 5.71h63.31a134.45 134.45 0 0 0-261.43 0h63.13a74.53 74.53 0 0 1 67.37-43z m130.89 43h-63.31a74.36 74.36 0 0 1 1.37 60h62.62a134.3 134.3 0 0 0-0.68-60z m-205.29 31.64a74.09 74.09 0 0 1 7-31.64H524.3a134.45 134.45 0 0 0-0.76 60h62.55a74 74 0 0 1-5.65-28.36zM160.9 468H64a30 30 0 0 0 0 60h93.38a135 135 0 0 1 3.52-60z m795.1 0H419.13a134.08 134.08 0 0 1 3.44 60H956a30 30 0 0 0 0-60z m-666.16-37a74.84 74.84 0 0 1 64.45 37h64.84a134.43 134.43 0 0 0-258.23 0h64.68a74.46 74.46 0 0 1 64.26-37z m37.37 139.06A74.53 74.53 0 0 1 218.89 528h-61.51a134.78 134.78 0 0 0 132.8 112.08A134.51 134.51 0 0 0 422.57 528H361a74.22 74.22 0 0 1-33.79 42.06z m-111.77-64.42A74.09 74.09 0 0 1 225.58 468H160.9a135 135 0 0 0-3.52 60h61.51a74.35 74.35 0 0 1-3.45-22.36zM419.13 468h-64.84c0 0.1 0.12 0.19 0.17 0.29A74.25 74.25 0 0 1 361 528h61.59a134.09 134.09 0 0 0-3.46-60z"
        fill="#297AFF"
        transform="scale(1.008, 1.008) translate(-4, -4)"
        opacity="0.7"
    ></path>
        <!-- 复制并加粗的路径 -->
    <path 
        d="M986 809a30 30 0 0 1-30 30H786.41a134.3 134.3 0 0 0-0.68-60H956a30 30 0 0 1 30 30z m-461.7-30H64a30 30 0 0 0 0 60h459.54a134.45 134.45 0 0 1 0.76-60z m167.91 96.06a74.51 74.51 0 0 1-101.79-27.28 73.72 73.72 0 0 1-4.33-8.78h-62.55a134.8 134.8 0 0 0 131.64 106.08 134.5 134.5 0 0 0 131.2-106h-62.59a74.2 74.2 0 0 1-31.58 36zM654.84 736a74.83 74.83 0 0 1 64.62 37.29c1.09 1.87 2.06 3.78 3 5.71h63.31a134.45 134.45 0 0 0-261.43 0h63.13a74.53 74.53 0 0 1 67.37-43z m130.89 43h-63.31a74.36 74.36 0 0 1 1.37 60h62.62a134.3 134.3 0 0 0-0.68-60z m-205.29 31.64a74.09 74.09 0 0 1 7-31.64H524.3a134.45 134.45 0 0 0-0.76 60h62.55a74 74 0 0 1-5.65-28.36zM956 168.92H785.73a134.3 134.3 0 0 1 0.68 60H956a30 30 0 0 0 0-60z m-431.7 0H64a30 30 0 1 0 0 60h459.54a134.45 134.45 0 0 1 0.76-60zM692.21 265a74.51 74.51 0 0 1-101.79-27.28 73.72 73.72 0 0 1-4.33-8.78h-62.55A134.81 134.81 0 0 0 655.18 335a134.5 134.5 0 0 0 131.2-106h-62.59a74.16 74.16 0 0 1-31.58 36z m-37.37-139.08a74.83 74.83 0 0 1 64.62 37.29c1.09 1.87 2.06 3.78 3 5.71h63.31a134.45 134.45 0 0 0-261.43 0h63.13a74.53 74.53 0 0 1 67.37-43z m130.89 43h-63.31a74.36 74.36 0 0 1 1.37 60h62.62a134.3 134.3 0 0 0-0.68-60z m-205.29 31.64a74.09 74.09 0 0 1 7-31.64H524.3a134.45 134.45 0 0 0-0.76 60h62.55a74 74 0 0 1-5.65-28.36zM160.9 468H64a30 30 0 0 0 0 60h93.38a135 135 0 0 1 3.52-60z m795.1 0H419.13a134.08 134.08 0 0 1 3.44 60H956a30 30 0 0 0 0-60z m-666.16-37a74.84 74.84 0 0 1 64.45 37h64.84a134.43 134.43 0 0 0-258.23 0h64.68a74.46 74.46 0 0 1 64.26-37z m37.37 139.06A74.53 74.53 0 0 1 218.89 528h-61.51a134.78 134.78 0 0 0 132.8 112.08A134.51 134.51 0 0 0 422.57 528H361a74.22 74.22 0 0 1-33.79 42.06z m-111.77-64.42A74.09 74.09 0 0 1 225.58 468H160.9a135 135 0 0 0-3.52 60h61.51a74.35 74.35 0 0 1-3.45-22.36zM419.13 468h-64.84c0 0.1 0.12 0.19 0.17 0.29A74.25 74.25 0 0 1 361 528h61.59a134.09 134.09 0 0 0-3.46-60z"
        fill="#297AFF"
        transform="scale(1.008, 1.008) translate(-4, -4)"
        opacity="0.7"
    ></path>
</svg>